<?xml version="1.0" encoding="utf-8"?>
<!-- Generator: Adobe Illustrator 15.0.2, SVG Export Plug-In . SVG Version: 6.00 Build 0)  -->
<!DOCTYPE svg PUBLIC "-//W3C//DTD SVG 1.1//EN" "http://www.w3.org/Graphics/SVG/1.1/DTD/svg11.dtd">
<svg version="1.1"
	 id="svg4244" xmlns:cc="http://creativecommons.org/ns#" xmlns:rdf="http://www.w3.org/1999/02/22-rdf-syntax-ns#" xmlns:dc="http://purl.org/dc/elements/1.1/" xmlns:svg="http://www.w3.org/2000/svg"
	 xmlns="http://www.w3.org/2000/svg" xmlns:xlink="http://www.w3.org/1999/xlink" x="0px" y="0px" width="32px" height="32px"
	 viewBox="0 0 32 32" enable-background="new 0 0 32 32" xml:space="preserve">
<g>
	<rect fill="#960688" width="32" height="32"/>
	<g id="layer1" transform="translate(0,-1020.3622)">
		<g id="g4373">
			<path id="path4329" fill="#FFFFFF" d="M15.984,1022.361c-0.552,0.009-0.993,0.463-0.984,1.016l0,0v25.971
				c-0.008,0.552,0.434,1.007,0.986,1.015s1.006-0.434,1.014-0.986c0-0.01,0-0.02,0-0.028v-25.971
				c0.009-0.552-0.432-1.007-0.984-1.016C16.005,1022.361,15.995,1022.361,15.984,1022.361z"/>
			<path id="path4331" fill="#FFFFFF" d="M13.018,1023.369c-0.552-0.004-1.003,0.441-1.007,0.993
				c-0.002,0.341,0.169,0.659,0.454,0.845l2.977,2c0.338,0.228,0.779,0.228,1.117,0l2.977-2c0.459-0.308,0.582-0.929,0.273-1.388
				c-0.307-0.459-0.928-0.582-1.388-0.274c-0.001,0-0.002,0.001-0.003,0.002L16,1025.172l-2.418-1.625
				C13.416,1023.432,13.219,1023.37,13.018,1023.369z"/>
			<path id="path4333" fill="#FFFFFF" d="M15.992,1045.34c-0.196,0.001-0.388,0.061-0.551,0.17l-2.977,2.002
				c-0.46,0.306-0.585,0.927-0.28,1.388c0.306,0.46,0.927,0.585,1.387,0.279c0.003-0.002,0.006-0.004,0.01-0.007l2.418-1.627
				l2.418,1.627c0.457,0.312,1.079,0.193,1.391-0.263c0.311-0.457,0.193-1.08-0.264-1.391c-0.003-0.002-0.006-0.005-0.01-0.007
				l-2.977-2.002C16.391,1045.397,16.194,1045.338,15.992,1045.34L15.992,1045.34z"/>
			<path id="path4337" fill="#FFFFFF" d="M27.289,1028.869c-0.191-0.006-0.379,0.043-0.543,0.141l-22.492,12.986
				c-0.489,0.257-0.677,0.862-0.419,1.351c0.257,0.489,0.862,0.677,1.351,0.42c0.023-0.013,0.046-0.025,0.068-0.04l22.492-12.984
				c0.482-0.269,0.655-0.878,0.387-1.36C27.961,1029.074,27.641,1028.88,27.289,1028.869L27.289,1028.869z"/>
			<path id="path4339" fill="#FFFFFF" d="M24.842,1026.779c-0.513,0.024-0.924,0.433-0.951,0.945l-0.244,3.578
				c-0.027,0.406,0.193,0.788,0.559,0.967l3.221,1.578c0.495,0.245,1.096,0.042,1.34-0.453c0.245-0.495,0.043-1.095-0.452-1.34
				c-0.003-0.001-0.006-0.003-0.009-0.004l-2.617-1.281l0.199-2.908c0.046-0.55-0.363-1.034-0.914-1.08
				C24.93,1026.778,24.886,1026.777,24.842,1026.779L24.842,1026.779z"/>
			<path id="path4341" fill="#FFFFFF" d="M4.092,1038.77c-0.552,0.017-0.986,0.478-0.97,1.029c0.011,0.376,0.233,0.714,0.573,0.875
				l2.617,1.281l-0.199,2.908c-0.038,0.552,0.378,1.028,0.93,1.066s1.029-0.378,1.066-0.93l0.244-3.578
				c0.028-0.405-0.193-0.788-0.559-0.967l-3.221-1.578C4.425,1038.802,4.259,1038.765,4.092,1038.77L4.092,1038.77z"/>
			<path id="path4345" fill="#FFFFFF" d="M4.68,1028.857c-0.551,0.034-0.97,0.509-0.936,1.061c0.021,0.339,0.213,0.645,0.51,0.811
				l22.492,12.986c0.479,0.276,1.09,0.112,1.366-0.366s0.112-1.09-0.366-1.366l-22.492-12.986
				C5.081,1028.893,4.881,1028.845,4.68,1028.857z"/>
			<path id="path4347" fill="#FFFFFF" d="M27.879,1038.77c-0.157-0.001-0.313,0.036-0.453,0.107l-3.221,1.578
				c-0.365,0.179-0.586,0.562-0.559,0.967l0.244,3.578c0.037,0.552,0.516,0.968,1.066,0.93s0.967-0.515,0.93-1.066l-0.199-2.908
				l2.617-1.281c0.5-0.235,0.713-0.832,0.477-1.331C28.617,1038.993,28.266,1038.771,27.879,1038.77z"/>
			<path id="path4349" fill="#FFFFFF" d="M7.127,1026.779c-0.552-0.009-1.008,0.431-1.017,0.983c0,0.033,0,0.066,0.003,0.099
				l0.199,2.908l-2.617,1.281c-0.497,0.24-0.706,0.838-0.465,1.336c0.24,0.497,0.838,0.706,1.336,0.465
				c0.002-0.001,0.005-0.002,0.008-0.004l3.221-1.578c0.365-0.179,0.586-0.561,0.559-0.967l-0.244-3.578
				C8.081,1027.2,7.652,1026.788,7.127,1026.779L7.127,1026.779z"/>
			<path id="path4351" fill="#FFFFFF" d="M20.324,1028.411c-0.297-0.085-0.617-0.028-0.867,0.153l-3.456,2.524l-3.458-2.525
				c-0.447-0.324-1.074-0.226-1.399,0.22c-0.146,0.201-0.213,0.449-0.186,0.696l0.461,4.244l-3.92,1.724
				c-0.506,0.223-0.735,0.812-0.512,1.316c0.102,0.229,0.285,0.411,0.515,0.512l3.92,1.726l-0.466,4.246
				c-0.06,0.549,0.338,1.041,0.888,1.101c0.249,0.026,0.498-0.04,0.7-0.188l3.456-2.524l3.458,2.525
				c0.447,0.324,1.074,0.227,1.399-0.22c0.146-0.201,0.213-0.449,0.186-0.696l-0.461-4.244l3.921-1.724
				c0.506-0.223,0.734-0.812,0.512-1.317c-0.102-0.229-0.285-0.411-0.515-0.511l-3.92-1.725l0.466-4.247
				C21.096,1028.995,20.792,1028.545,20.324,1028.411z M18.807,1031.516l-0.299,2.722c-0.046,0.433,0.194,0.846,0.594,1.021
				l2.512,1.106l-2.511,1.103c-0.399,0.176-0.64,0.59-0.591,1.023l0.298,2.724l-2.22-1.621c-0.351-0.256-0.828-0.256-1.18,0
				l-2.217,1.617l0.299-2.723c0.046-0.433-0.194-0.846-0.594-1.02l-2.512-1.106l2.511-1.103c0.4-0.176,0.64-0.59,0.592-1.023
				l-0.299-2.723l2.219,1.62c0.352,0.256,0.829,0.256,1.181,0L18.807,1031.516L18.807,1031.516z"/>
		</g>
	</g>
</g>
</svg>
